

Release info:

General
Format                                   : Flash Video
File size                                : 205 MiB
Duration                                 : 44mn 31s
Overall bit rate                         : 645 Kbps

Video
Format                                   : AVC
Format/Info                              : Advanced Video Codec
Format profile                           : Main@L3.0
Format settings, CABAC                   : Yes
Format settings, ReFrames                : 3 frames
Format settings, GOP                     : M=1, N=60
Codec ID                                 : 7
Duration                                 : 44mn 31s
Bit rate                                 : 508 Kbps
Width                                    : 640 pixels
Height                                   : 360 pixels
Display aspect ratio                     : 16:9
Frame rate mode                          : Constant
Frame rate                               : 29.917 fps
Color space                              : YUV
Chroma subsampling                       : 4:2:0
Bit depth                                : 8 bits
Scan type                                : Progressive
Bits/(Pixel*Frame)                       : 0.074
Stream size                              : 162 MiB (79%)

Audio
Format                                   : AAC
Format/Info                              : Advanced Audio Codec
Format profile                           : LC
Codec ID                                 : 10
Duration                                 : 44mn 31s
Bit rate                                 : 129 Kbps
Channel(s)                               : 2 channels
Channel positions                        : Front: L R
Sampling rate                            : 44.1 KHz
Compression mode                         : Lossy
Stream size                              : 41.0 MiB (20%)



Source:
credit to original movie ripper (Thanks)

IMDB Info:

Ratings: 8.4/10
This program considers the likelihood that intelligent life exists elsewhere in the universe and the prospects that it may inhabit a nearby planet. Then the various methods being used to look for alien intelligence are reviewed.

Writers: Kurt Sayenga, Rhys Thomas
Stars: Paul Davies, Morgan Freeman and Lynn Rothschild 

Genres: Documentary | Family | Mystery
 
http://www.imdb.com/title/tt1669753/

Screen Shot:
 
http://www.shotpix.com/images/11199470600397835927.png 
http://www.shotpix.com/images/18161754173289150111.png 
http://www.shotpix.com/images/75490713267983866195.png 
http://www.shotpix.com/images/59068215974665483489.png 
http://www.shotpix.com/images/83484511654824537731.png 
http://www.shotpix.com/images/90429902445336088329.png